<?xml version="1.0" encoding="UTF-8" standalone="no"?> <!-- Created with Vectornator for iOS (http://vectornator.io/) --><!DOCTYPE svg PUBLIC "-//W3C//DTD SVG 1.1//EN" "http://www.w3.org/Graphics/SVG/1.1/DTD/svg11.dtd">
<svg style="fill-rule:evenodd;clip-rule:evenodd;stroke-linecap:round;stroke-linejoin:round;" xmlns:vectornator="http://vectornator.io" xmlns:xlink="http://www.w3.org/1999/xlink" xmlns="http://www.w3.org/2000/svg" xml:space="preserve" version="1.1" viewBox="0 0 1024 1024">
<metadata>
<vectornator:setting key="DimensionsVisible" value="1"/>
<vectornator:setting key="SnapToGrid" value="0"/>
<vectornator:setting key="SnapToPoints" value="0"/>
<vectornator:setting key="GuidesVisible" value="1"/>
<vectornator:setting key="RulersVisible" value="1"/>
<vectornator:setting key="SnapToEdges" value="0"/>
<vectornator:setting key="DisplayWhiteBackground" value="0"/>
<vectornator:setting key="SnapToGuides" value="1"/>
<vectornator:setting key="TimeLapseWatermarkDisabled" value="0"/>
<vectornator:setting key="GridSpacing" value="36"/>
<vectornator:setting key="Units" value="Pixels"/>
<vectornator:setting key="DynamicGuides" value="1"/>
<vectornator:setting key="New" value="1"/>
</metadata>
<defs>
<linearGradient y1="366.134" id="LinearGradient" x1="277.84" y2="366.134" x2="746.16" gradientUnits="userSpaceOnUse" gradientTransform="matrix(1 0 0 1 0 0)">
<stop stop-color="#42587b" offset="0"/>
<stop stop-color="#4848a0" offset="1"/>
</linearGradient>
<linearGradient y1="717.363" id="LinearGradient_2" x1="235.887" y2="717.363" x2="788.113" gradientUnits="userSpaceOnUse" gradientTransform="matrix(1 0 0 1 0 0)">
<stop stop-color="#42587b" offset="0"/>
<stop stop-color="#4848a0" offset="1"/>
</linearGradient>
</defs>
<g id="Layer 1" vectornator:layerName="Layer 1">
<path d="M0+0L1024+0L1024+1024L0+1024L0+0Z" opacity="1" fill="#4e6891"/>
<path d="M505.78+143.046L518.22+143.046C644.108+143.046+746.16+242.926+746.16+366.134L746.16+366.134C746.16+489.343+644.108+589.223+518.22+589.223L505.78+589.223C379.892+589.223+277.84+489.343+277.84+366.134L277.84+366.134C277.84+242.926+379.892+143.046+505.78+143.046Z" opacity="1" fill="url(#LinearGradient)"/>
<path d="M504.665+553.772L519.335+553.772C667.777+553.772+788.113+651.304+788.113+771.615L788.113+771.615C788.113+891.926+512+880.675+512+880.675C512+880.675+235.887+891.926+235.887+771.615L235.887+771.615C235.887+651.304+356.223+553.772+504.665+553.772Z" opacity="1" fill="url(#LinearGradient_2)"/>
</g>
</svg>
