<?xml version="1.0" encoding="UTF-8" standalone="no"?> <!-- Created with Vectornator for iOS (http://vectornator.io/) --><!DOCTYPE svg PUBLIC "-//W3C//DTD SVG 1.1//EN" "http://www.w3.org/Graphics/SVG/1.1/DTD/svg11.dtd">
<svg style="fill-rule:evenodd;clip-rule:evenodd;stroke-linecap:round;stroke-linejoin:round;" xmlns:vectornator="http://vectornator.io" xmlns:xlink="http://www.w3.org/1999/xlink" xmlns="http://www.w3.org/2000/svg" xml:space="preserve" version="1.1" viewBox="0 0 300 300">
<metadata>
<vectornator:setting key="DynamicGuides" value="1"/>
<vectornator:setting key="Units" value="Points"/>
<vectornator:setting key="GuidesVisible" value="1"/>
<vectornator:setting key="RulersVisible" value="1"/>
<vectornator:setting key="SnapToGuides" value="1"/>
<vectornator:setting key="GridSpacing" value="36"/>
</metadata>
<defs/>
<g id="Layer 1" vectornator:layerName="Layer 1">
<path d="M43.9141+171.739C43.9141+113.541+91.4103+66.3616+150+66.3616C208.589+66.3616+256.086+113.541+256.086+171.739C256.086+229.937+208.589+277.116+150+277.116C91.4103+277.116+43.9141+229.937+43.9141+171.739Z" fill-rule="evenodd" fill="#ffffff" opacity="1"/>
<path d="M239.023+25.2348C243.256+20.5536+250.865+23.305+251.078+29.5935L255.654+164.414C255.824+169.441+250.901+173.122+246.252+171.441L150.929+136.978C146.28+135.298+144.89+129.334+148.274+125.591L239.023+25.2348Z" fill-rule="evenodd" fill="#ffffff" opacity="1"/>
<path d="M48.6095+29.648C48.818+23.3641+56.4302+20.6202+60.6693+25.3014L151.551+125.66C154.94+129.402+153.554+135.361+148.904+137.037L53.5483+171.404C48.8982+173.08+43.9687+169.398+44.1353+164.374L48.6095+29.648Z" fill-rule="evenodd" fill="#ffffff" opacity="1"/>
</g>
</svg>
